PathFileType	4	(X/Y/Z)	s06c0302.trc
DataRate	CameraRate	NumFrames	NumMarkers	Units	OrigDataRate	OrigDataStartFrame	OrigNumFrames
200	200	4	48	mm	200	0	2000
Frame#	Time	racr			lacr			c7			jug			rlel			rdr			llel			ldr			s2			lic			ric			lasi			rasi			rpsi			lpsi			rgt			lgt			rth1			rth2			rth3			rth4			rlfc			rmfc			rsh1			rsh2			rsh3			rsh4			rlmal			rcal			rtoe			rmt5			lth1			lth2			lth4			lth3			llfc			lmfc			llmal			lcal			lmt5			lsh1			lsh2			lsh3			lsh4			ltoe			SBIKE			LBIKE			RBIKE			
		X1	Y1	Z1	X2	Y2	Z2	X3	Y3	Z3	X4	Y4	Z4	X5	Y5	Z5	X6	Y6	Z6	X7	Y7	Z7	X8	Y8	Z8	X9	Y9	Z9	X10	Y10	Z10	X11	Y11	Z11	X12	Y12	Z12	X13	Y13	Z13	X14	Y14	Z14	X15	Y15	Z15	X16	Y16	Z16	X17	Y17	Z17	X18	Y18	Z18	X19	Y19	Z19	X20	Y20	Z20	X21	Y21	Z21	X22	Y22	Z22	X23	Y23	Z23	X24	Y24	Z24	X25	Y25	Z25	X26	Y26	Z26	X27	Y27	Z27	X28	Y28	Z28	X29	Y29	Z29	X30	Y30	Z30	X31	Y31	Z31	X32	Y32	Z32	X33	Y33	Z33	X34	Y34	Z34	X35	Y35	Z35	X36	Y36	Z36	X37	Y37	Z37	X38	Y38	Z38	X39	Y39	Z39	X40	Y40	Z40	X41	Y41	Z41	X42	Y42	Z42	X43	Y43	Z43	X44	Y44	Z44	X45	Y45	Z45	X46	Y46	Z46	X47	Y47	Z47	X48	Y48	Z48	
0	0.0000	463.988152	1321.624748	-62.448371	487.546007	1324.201608	-393.640332	477.073354	1407.882736	-228.336042	490.095610	1252.665110	-223.213281	521.624768	1072.670019	22.966790	719.312120	922.449866	-40.078899	515.889479	1063.447582	-474.259729	713.217127	922.506245	-409.376811	-27.773593	1153.939983	-236.196161	157.453109	1077.834799	-387.035451	124.543359	1107.491932	-55.880899	154.439273	1011.686476	-356.129436	128.146762	1044.856467	-78.619607	11.117046	1183.724225	-202.657385	14.870417	1179.702586	-262.966798	72.308384	1061.380980	-20.038355	98.089375	1015.613903	-418.666912	168.569873	982.650451	-21.880695	254.194089	951.068844	-26.582437	308.533163	883.184337	-29.781150	271.000596	979.008544	-45.962509	367.785144	795.018058	-51.442348	362.589848	769.028301	-160.738707	332.575515	678.434950	-23.344785	326.624286	592.468424	-42.716474	281.640557	518.123249	-43.986637	347.784461	590.012243	-76.524657	250.377656	436.820925	-48.827336	189.876246	400.922149	-97.948236	465.478562	408.689897	-102.178538	372.654116	378.111613	-30.035464	128.327157	898.717359	-424.008373	187.414430	836.304429	-412.131581	218.122634	853.485416	-399.909543	207.604821	749.251454	-402.865837	220.874133	639.367637	-376.029247	211.021555	624.072278	-261.357551	-37.191566	366.815040	-382.359279	-117.992794	355.636978	-337.589410	65.970967	278.913273	-402.050914	152.500668	557.533418	-402.072089	109.213864	483.843150	-384.709714	33.836694	436.258292	-389.753982	125.867966	471.858074	-351.221775	149.770293	269.858019	-340.430384	-202.731501	865.239195	-216.574924	-48.233917	79.765499	-415.304571	-49.122343	79.044069	-18.574851	
1	0.0050	463.986118	1321.589782	-62.441646	487.567390	1324.190997	-393.627431	477.087412	1407.880287	-228.312824	490.107426	1252.647475	-223.194982	521.599155	1072.644272	23.039564	719.283021	922.456860	-40.063376	515.875084	1063.446292	-474.302334	713.208595	922.497861	-409.361065	-27.739537	1153.940183	-236.188505	157.479732	1077.819302	-386.975087	124.585623	1107.478606	-55.882949	154.471958	1011.703079	-356.105334	128.192235	1044.845761	-78.628010	11.160126	1183.725032	-202.662068	14.947216	1179.721136	-262.991181	72.334520	1061.356836	-20.047816	98.112148	1015.623142	-418.664769	168.614482	982.605982	-21.908045	254.229984	951.074860	-26.585089	308.582414	883.174864	-29.800364	271.049317	978.981249	-45.987652	367.874997	795.022349	-51.476408	362.610870	768.975320	-160.786749	332.620912	678.396418	-23.400440	326.662507	592.451025	-42.740796	281.691596	518.078198	-44.011191	347.830224	589.970071	-76.560267	250.426487	436.785743	-48.838848	189.921325	400.854649	-97.974738	465.498743	408.601656	-102.170976	372.675771	378.047317	-30.040990	128.356879	898.739128	-424.028310	187.458758	836.294095	-412.127494	218.159399	853.492773	-399.912343	207.620911	749.255090	-402.868358	220.894619	639.382771	-376.047436	211.068558	624.084946	-261.390085	-37.214397	366.882107	-382.369250	-118.025299	355.725601	-337.583426	65.956523	278.981402	-402.070484	152.502966	557.577897	-402.115446	109.208063	483.874440	-384.723693	33.372615	436.237732	-388.682446	125.687618	471.971128	-350.921037	149.753166	269.937442	-340.443790	-202.729257	865.237644	-216.565379	-48.226664	79.760654	-415.292627	-49.131349	79.051149	-18.567403	
2	0.0100	464.037811	1321.563646	-62.430962	487.593680	1324.184028	-393.592609	477.134271	1407.831223	-228.288100	490.167610	1252.610426	-223.177083	521.569302	1072.589374	23.102613	719.294587	922.458363	-40.053716	515.887833	1063.422838	-474.280021	713.219552	922.497775	-409.351508	-27.681508	1153.931923	-236.172570	157.505419	1077.813537	-386.917940	124.634384	1107.468560	-55.886512	154.486654	1011.755443	-356.111774	128.242776	1044.836902	-78.634921	11.212312	1183.717149	-202.656974	14.984412	1179.712273	-262.974450	72.380231	1061.332361	-20.041861	98.144742	1015.637957	-418.648431	168.646194	982.581440	-21.914571	254.274140	951.052447	-26.604305	308.618816	883.137466	-29.828681	271.089593	978.936755	-46.005531	367.880212	794.950713	-51.564232	362.631030	768.943665	-160.832448	332.659526	678.341781	-23.413441	326.690073	592.407112	-42.743548	281.718713	518.050937	-44.027005	347.859801	589.942689	-76.581962	250.461702	436.749457	-48.847887	189.930366	400.833487	-97.982056	465.519518	408.523123	-102.178076	372.701250	377.988156	-30.039722	128.387531	898.739500	-424.027762	187.476846	836.311259	-412.120228	218.191745	853.497862	-399.921970	207.655465	749.265695	-402.851971	220.928411	639.391788	-376.060975	211.063638	624.080617	-261.377726	-37.252087	366.954937	-382.376793	-118.042722	355.776667	-337.594438	65.933403	279.054266	-402.062692	152.515351	557.593366	-402.118862	109.194732	483.905931	-384.747982	33.341923	436.283851	-388.687711	125.660046	471.988844	-350.913520	149.727139	269.997472	-340.440576	-202.731142	865.237907	-216.557620	-48.224566	79.755114	-415.285270	-49.128114	79.039883	-18.568654	
3	0.0150	463.936912	1321.475727	-62.445780	487.612126	1324.182310	-393.557621	477.160773	1407.819274	-228.262855	490.209877	1252.592356	-223.177379	521.510029	1072.528131	23.166024	719.302307	922.444856	-40.043456	515.919014	1063.599420	-474.775835	713.229900	922.509319	-409.362642	-26.827213	1154.042506	-237.860636	157.533909	1077.822829	-386.844700	124.676409	1107.478305	-55.900502	154.226847	1013.095242	-357.904636	128.343544	1044.860041	-78.676170	11.260412	1183.692838	-202.658837	15.045857	1179.711874	-262.965727	72.536297	1061.109979	-19.835539	98.332502	1015.600706	-418.668319	168.882464	982.351119	-21.852316	254.228506	950.922031	-25.968648	308.646857	883.105602	-29.846964	271.191887	978.843022	-46.045651	367.929400	794.902577	-51.592086	362.786231	768.876200	-160.810621	332.578281	678.240791	-23.339379	326.369071	592.373102	-43.079847	281.721006	518.004564	-44.037680	348.061688	589.855749	-76.578554	250.549943	436.585491	-48.922138	189.963853	400.792207	-97.989993	465.542398	408.477703	-102.185065	372.713927	377.959584	-30.043441	128.409040	898.757235	-424.036270	187.508710	836.323304	-412.112165	218.114172	853.654846	-399.784246	207.691193	749.265084	-402.840013	221.043049	639.264044	-376.120540	211.048396	624.066027	-261.377975	-37.286806	366.732655	-381.990180	-118.061898	355.819726	-337.603512	65.934303	279.095712	-402.065370	152.682385	557.509601	-402.169102	109.058360	483.798835	-384.760859	33.544898	436.823496	-390.392214	125.220210	471.462069	-350.250615	149.723975	270.044078	-340.449058	-202.785407	865.225427	-216.733848	-48.229717	79.769533	-415.283785	-49.125631	79.033438	-18.560928	
